<?xml version="1.0" encoding="utf-8"?>
<!-- Generator: Adobe Illustrator 26.2.1, SVG Export Plug-In . SVG Version: 6.00 Build 0)  -->
<svg version="1.1" id="Layer_1" xmlns="http://www.w3.org/2000/svg" xmlns:xlink="http://www.w3.org/1999/xlink" x="0px" y="0px"
	 viewBox="0 0 425.2 425.2" style="enable-background:new 0 0 425.2 425.2;" xml:space="preserve">
<style type="text/css">
	.st0{fill:#F7931A;}
	.st1{fill:#FFFFFF;}
	.st2{fill:#252526;}
	.st3{fill-rule:evenodd;clip-rule:evenodd;fill:#009DE2;}
	.st4{fill-rule:evenodd;clip-rule:evenodd;fill:#113984;}
	.st5{fill-rule:evenodd;clip-rule:evenodd;fill:#172C70;}
	.st6{fill:#191A6A;}
	.st7{fill:#110F0D;}
	.st8{fill:#231F20;}
	.st9{fill-rule:evenodd;clip-rule:evenodd;fill:#F8991D;}
	.st10{fill-rule:evenodd;clip-rule:evenodd;fill:#333E47;}
	.st11{fill:#0A0B09;}
	.st12{fill-rule:evenodd;clip-rule:evenodd;fill:#231F20;}
	.st13{fill-rule:evenodd;clip-rule:evenodd;fill:none;}
	.st14{fill-rule:evenodd;clip-rule:evenodd;fill:#252122;}
	.st15{fill:#26A6D1;}
	.st16{fill:#862165;}
	.st17{fill:none;}
	.st18{fill:#9B65DF;}
	.st19{fill:#FE4700;}
	.st20{fill:#FC4F00;}
	.st21{fill:#07A1D9;}
	.st22{fill:#B9D91A;}
	.st23{fill:#20DA86;}
	.st24{fill:#F04C4E;}
	.st25{fill:#E2D301;}
	.st26{fill:#DED701;}
	.st27{fill:#EE8F00;}
	.st28{fill:#EC9800;}
	.st29{fill:#F64A2C;}
	.st30{fill:#1DD390;}
	.st31{fill:#1ACF96;}
	.st32{fill:#E84E7D;}
	.st33{fill:#E7B401;}
	.st34{fill:#FD4807;}
	.st35{fill:#F08600;}
	.st36{fill:#F24B48;}
	.st37{fill:#F54A36;}
	.st38{fill:#0B8EF1;}
	.st39{fill:#F76300;}
	.st40{fill:#0191F2;}
	.st41{fill:#FB480E;}
	.st42{fill:#FA4915;}
	.st43{fill:#BFD816;}
	.st44{fill:#FA5600;}
	.st45{fill:#E6BD01;}
	.st46{fill:#1ED78A;}
	.st47{fill:#F37700;}
	.st48{fill:#EA4D72;}
	.st49{fill:#23DA7E;}
	.st50{fill:#EAA100;}
	.st51{fill:#F17F00;}
	.st52{fill:#F84923;}
	.st53{fill:#0FB4BE;}
	.st54{fill:#F95B00;}
	.st55{fill:#E8AD01;}
	.st56{fill:#F66800;}
	.st57{fill:#F56F00;}
	.st58{fill:#12BAB6;}
	.st59{fill:#E4CD01;}
	.st60{fill:#B4D91D;}
	.st61{fill:#F8491D;}
	.st62{fill:#19CB9D;}
	.st63{fill:#E5C801;}
	.st64{fill:#D8D804;}
	.st65{fill:#E250A3;}
	.st66{fill:#E051AC;}
	.st67{fill:#09A5D4;}
	.st68{fill:#26DA7A;}
	.st69{fill:#F34B40;}
	.st70{fill:#E64F87;}
	.st71{fill:#1E89EF;}
	.st72{fill:#E9A600;}
	.st73{fill:#EB4D6A;}
	.st74{fill:#CFD80A;}
	.st75{fill:#E6C301;}
	.st76{fill:#18C7A2;}
	.st77{fill:#2786ED;}
	.st78{fill:#158BF0;}
	.st79{fill:#4ADA5C;}
	.st80{fill:#A5D925;}
	.st81{fill:#DF52B4;}
	.st82{fill:#D654D8;}
	.st83{fill:#EF4C55;}
	.st84{fill:#059DE0;}
	.st85{fill:#53DA56;}
	.st86{fill:#E3509B;}
	.st87{fill:#C5D811;}
	.st88{fill:#E54F8D;}
	.st89{fill:#DE52BA;}
	.st90{fill:#70D944;}
	.st91{fill:#2CDA74;}
	.st92{fill:#0DAFC6;}
	.st93{fill:#9CD92A;}
	.st94{fill:#E45094;}
	.st95{fill:#D953D4;}
	.st96{fill:#CF56DB;}
	.st97{fill:#0BAACC;}
	.st98{fill:#5DDA4F;}
	.st99{fill:#66DA4A;}
	.st100{fill:#16C4A7;}
	.st101{fill:#8A6AE1;}
	.st102{fill:#13BEB0;}
	.st103{fill:#ED4C62;}
	.st104{fill:#3682EC;}
	.st105{fill:#6C72E5;}
	.st106{fill:#9367E0;}
	.st107{fill:#DB53CD;}
	.st108{fill:#DC52C1;}
	.st109{fill:#5579E8;}
	.st110{fill:#3E7FEB;}
	.st111{fill:#4D7BE9;}
	.st112{fill:#2F84ED;}
	.st113{fill:#15C1AC;}
	.st114{fill:#5D76E7;}
	.st115{fill:#94D92E;}
	.st116{fill:#7470E4;}
	.st117{fill:#31DA6F;}
	.st118{fill:#457DEA;}
	.st119{fill:#6474E6;}
	.st120{fill:#41DA63;}
	.st121{fill:#79D93E;}
	.st122{fill:#ABD922;}
	.st123{fill:#EE4C5C;}
	.st124{fill:#AFD91F;}
	.st125{fill:#826CE2;}
	.st126{fill:#36DA6B;}
	.st127{fill:#BE5BDD;}
	.st128{fill:#C758DC;}
	.st129{fill:#DC53C7;}
	.st130{fill:#8ED932;}
	.st131{fill:#80D93A;}
	.st132{fill:#7B6EE3;}
	.st133{fill:#0296EC;}
	.st134{fill:#A163DE;}
	.st135{fill:#87D936;}
	.st136{fill:#0399E6;}
	.st137{fill:#3BDA66;}
	.st138{fill:#B65DDD;}
	.st139{fill:#A861DE;}
	.st140{fill:#AF5FDD;}
	.st141{fill:#E21836;}
	.st142{fill:#00447C;}
	.st143{fill:#007B84;}
	.st144{fill:#FEFEFE;}
	.st145{fill-rule:evenodd;clip-rule:evenodd;fill:#3D95CE;}
	.st146{fill:#6772E5;}
	.st147{fill:#211F1F;}
	.st148{fill:#1E4BC6;}
	.st149{fill:#0099DF;}
	.st150{fill:#005EB6;}
	.st151{fill:#2271CE;}
	.st152{fill:#D32011;}
	.st153{fill:#6C6BBD;}
	.st154{fill:#F79E1B;}
	.st155{fill:#EB001B;}
	.st156{fill:#FF5F00;}
	.st157{fill-rule:evenodd;clip-rule:evenodd;fill:#2BA6DF;}
	.st158{fill-rule:evenodd;clip-rule:evenodd;fill:#3F3A39;}
	.st159{fill:#FBBC05;}
	.st160{fill:#EA4335;}
	.st161{fill:#34A853;}
	.st162{fill:#4285F4;}
</style>
<g>
	<path class="st154" d="M252.22,166.34c-14.97,0-28.74,5.18-39.61,13.83c14.62,11.66,23.99,29.62,23.99,49.77
		c0,20.16-9.38,38.14-24.02,49.79c10.87,8.67,24.65,13.85,39.63,13.85c35.14,0,63.62-28.49,63.62-63.62
		C315.84,194.83,287.36,166.34,252.22,166.34z"/>
	<path class="st155" d="M188.59,229.97c0-20.16,9.38-38.14,24.02-49.79c-10.87-8.67-24.64-13.85-39.63-13.85
		c-35.14,0-63.62,28.49-63.62,63.62c0,35.14,28.49,63.62,63.62,63.62c14.97,0,28.74-5.18,39.61-13.83
		C197.97,268.08,188.59,250.12,188.59,229.97z"/>
	<path class="st156" d="M236.61,229.95c0-20.15-9.37-38.12-23.99-49.77c-14.64,11.66-24.02,29.63-24.02,49.79
		c0,20.15,9.37,38.12,23.99,49.77C227.22,268.08,236.61,250.11,236.61,229.95z"/>
</g>
<path d="M146.57,332.8v-10.61c0-4.07-2.48-6.72-6.54-6.72c-2.13,0-4.42,0.71-6.01,2.99c-1.24-1.95-2.99-2.99-5.66-2.99
	c-2.01-0.09-3.94,0.84-5.12,2.48v-2.13h-3.36v16.97h3.36v-9.71c0-2.99,1.77-4.42,4.24-4.42c2.48,0,3.89,1.59,3.89,4.42v9.72h3.36
	v-9.72c0-2.99,1.77-4.42,4.24-4.42c2.48,0,3.89,1.59,3.89,4.42v9.72H146.57z M201.73,316h-6.19v-5.12h-3.35V316h-3.53v2.99h3.53
	v7.97c0,3.89,1.41,6.19,5.66,6.19c1.61-0.03,3.18-0.46,4.59-1.24l-1.06-2.99c-0.95,0.6-2.06,0.9-3.18,0.88
	c-1.77,0-2.65-1.06-2.65-2.83v-8.13h6.19v-2.83L201.73,316z M233.2,315.47c-1.86-0.04-3.61,0.9-4.6,2.48v-2.13h-3.36v16.97h3.36
	v-9.53c0-2.83,1.41-4.6,3.71-4.6c0.78,0.03,1.55,0.15,2.3,0.35l1.06-3.18C234.86,315.62,234.03,315.5,233.2,315.47L233.2,315.47z
	 M185.64,317.24c-1.77-1.24-4.24-1.77-6.89-1.77c-4.24,0-6.89,1.95-6.89,5.31c0,2.83,1.95,4.42,5.66,4.95l1.77,0.18
	c1.95,0.35,3.18,1.06,3.18,1.95c0,1.24-1.41,2.13-4.07,2.13c-2.03,0.04-4.01-0.58-5.66-1.77l-1.77,2.65
	c2.48,1.77,5.48,2.13,7.26,2.13c4.95,0,7.6-2.3,7.6-5.48c0-2.99-2.13-4.42-5.83-4.95l-1.77-0.17c-1.59-0.18-2.99-0.71-2.99-1.77
	c0-1.24,1.41-2.13,3.36-2.13c2.13,0,4.24,0.88,5.31,1.41L185.64,317.24z M236.91,324.31c0,5.12,3.36,8.84,8.84,8.84
	c2.48,0,4.24-0.53,6.01-1.95l-1.77-2.65c-1.25,1.01-2.81,1.57-4.42,1.59c-2.99,0-5.31-2.3-5.31-5.66c0-3.36,2.29-5.64,5.31-5.64
	c1.61,0.02,3.17,0.58,4.42,1.59l1.77-2.65c-1.77-1.41-3.53-1.95-6.01-1.95c-5.31-0.35-8.84,3.36-8.84,8.49l0,0V324.31z
	 M213.22,315.47c-4.95,0-8.31,3.53-8.31,8.84c0,5.31,3.53,8.84,8.66,8.84c2.49,0.05,4.93-0.76,6.89-2.3l-1.77-2.48
	c-1.42,1.1-3.15,1.72-4.95,1.77c-2.3,0-4.77-1.41-5.12-4.42h12.55v-1.41C221.18,319.01,217.99,315.48,213.22,315.47L213.22,315.47
	L213.22,315.47z M213.05,318.66c2.48,0,4.24,1.59,4.42,4.24h-9.19C208.8,320.42,210.41,318.66,213.05,318.66L213.05,318.66z
	 M167.26,324.31v-8.49h-3.36v2.13c-1.24-1.59-2.99-2.48-5.48-2.48c-4.77,0-8.31,3.71-8.31,8.84c0,5.13,3.53,8.84,8.31,8.84
	c2.48,0,4.24-0.88,5.48-2.48v2.13h3.36V324.31z M153.65,324.31c0-3.18,1.95-5.66,5.31-5.66c3.18,0,5.12,2.48,5.12,5.66
	c0,3.36-2.13,5.66-5.12,5.66C155.59,330.14,153.65,327.49,153.65,324.31L153.65,324.31z M284.3,315.47c-1.86-0.04-3.61,0.9-4.6,2.48
	v-2.13h-3.36v16.97h3.36v-9.53c0-2.83,1.41-4.6,3.71-4.6c0.78,0.03,1.55,0.15,2.3,0.35l1.06-3.18
	C285.96,315.62,285.13,315.5,284.3,315.47L284.3,315.47z M271.21,324.31v-8.49h-3.36v2.13c-1.24-1.59-2.99-2.48-5.48-2.48
	c-4.77,0-8.31,3.71-8.31,8.84c0,5.13,3.53,8.84,8.31,8.84c2.48,0,4.24-0.88,5.48-2.48v2.13h3.36V324.31z M257.6,324.31
	c0-3.18,1.95-5.66,5.31-5.66c3.18,0,5.12,2.48,5.12,5.66c0,3.36-2.13,5.66-5.12,5.66C259.55,330.14,257.6,327.49,257.6,324.31z
	 M305.34,324.31v-15.2h-3.36v8.84c-1.24-1.59-2.99-2.48-5.48-2.48c-4.77,0-8.31,3.71-8.31,8.84s3.53,8.84,8.31,8.84
	c2.48,0,4.24-0.88,5.48-2.48v2.13h3.36V324.31z M291.72,324.31c0-3.18,1.95-5.66,5.31-5.66c3.18,0,5.12,2.48,5.12,5.66
	c0,3.36-2.13,5.66-5.12,5.66C293.67,330.15,291.72,327.5,291.72,324.31L291.72,324.31z"/>
</svg>
