<?xml version="1.0" encoding="utf-8"?>
<!-- Generator: Adobe Illustrator 26.2.1, SVG Export Plug-In . SVG Version: 6.00 Build 0)  -->
<svg version="1.1" id="Layer_1" xmlns="http://www.w3.org/2000/svg" xmlns:xlink="http://www.w3.org/1999/xlink" x="0px" y="0px"
	 viewBox="0 0 425.2 425.2" style="enable-background:new 0 0 425.2 425.2;" xml:space="preserve">
<style type="text/css">
	.st0{fill:#F7931A;}
	.st1{fill:#FFFFFF;}
	.st2{fill:#252526;}
	.st3{fill-rule:evenodd;clip-rule:evenodd;fill:#009DE2;}
	.st4{fill-rule:evenodd;clip-rule:evenodd;fill:#113984;}
	.st5{fill-rule:evenodd;clip-rule:evenodd;fill:#172C70;}
	.st6{fill:#191A6A;}
	.st7{fill:#110F0D;}
	.st8{fill:#231F20;}
	.st9{fill-rule:evenodd;clip-rule:evenodd;fill:#F8991D;}
	.st10{fill-rule:evenodd;clip-rule:evenodd;fill:#333E47;}
	.st11{fill:#0A0B09;}
	.st12{fill-rule:evenodd;clip-rule:evenodd;fill:#231F20;}
	.st13{fill-rule:evenodd;clip-rule:evenodd;fill:none;}
	.st14{fill-rule:evenodd;clip-rule:evenodd;fill:#252122;}
	.st15{fill:#26A6D1;}
	.st16{fill:#862165;}
	.st17{fill:none;}
	.st18{fill:#9B65DF;}
	.st19{fill:#FE4700;}
	.st20{fill:#FC4F00;}
	.st21{fill:#07A1D9;}
	.st22{fill:#B9D91A;}
	.st23{fill:#20DA86;}
	.st24{fill:#F04C4E;}
	.st25{fill:#E2D301;}
	.st26{fill:#DED701;}
	.st27{fill:#EE8F00;}
	.st28{fill:#EC9800;}
	.st29{fill:#F64A2C;}
	.st30{fill:#1DD390;}
	.st31{fill:#1ACF96;}
	.st32{fill:#E84E7D;}
	.st33{fill:#E7B401;}
	.st34{fill:#FD4807;}
	.st35{fill:#F08600;}
	.st36{fill:#F24B48;}
	.st37{fill:#F54A36;}
	.st38{fill:#0B8EF1;}
	.st39{fill:#F76300;}
	.st40{fill:#0191F2;}
	.st41{fill:#FB480E;}
	.st42{fill:#FA4915;}
	.st43{fill:#BFD816;}
	.st44{fill:#FA5600;}
	.st45{fill:#E6BD01;}
	.st46{fill:#1ED78A;}
	.st47{fill:#F37700;}
	.st48{fill:#EA4D72;}
	.st49{fill:#23DA7E;}
	.st50{fill:#EAA100;}
	.st51{fill:#F17F00;}
	.st52{fill:#F84923;}
	.st53{fill:#0FB4BE;}
	.st54{fill:#F95B00;}
	.st55{fill:#E8AD01;}
	.st56{fill:#F66800;}
	.st57{fill:#F56F00;}
	.st58{fill:#12BAB6;}
	.st59{fill:#E4CD01;}
	.st60{fill:#B4D91D;}
	.st61{fill:#F8491D;}
	.st62{fill:#19CB9D;}
	.st63{fill:#E5C801;}
	.st64{fill:#D8D804;}
	.st65{fill:#E250A3;}
	.st66{fill:#E051AC;}
	.st67{fill:#09A5D4;}
	.st68{fill:#26DA7A;}
	.st69{fill:#F34B40;}
	.st70{fill:#E64F87;}
	.st71{fill:#1E89EF;}
	.st72{fill:#E9A600;}
	.st73{fill:#EB4D6A;}
	.st74{fill:#CFD80A;}
	.st75{fill:#E6C301;}
	.st76{fill:#18C7A2;}
	.st77{fill:#2786ED;}
	.st78{fill:#158BF0;}
	.st79{fill:#4ADA5C;}
	.st80{fill:#A5D925;}
	.st81{fill:#DF52B4;}
	.st82{fill:#D654D8;}
	.st83{fill:#EF4C55;}
	.st84{fill:#059DE0;}
	.st85{fill:#53DA56;}
	.st86{fill:#E3509B;}
	.st87{fill:#C5D811;}
	.st88{fill:#E54F8D;}
	.st89{fill:#DE52BA;}
	.st90{fill:#70D944;}
	.st91{fill:#2CDA74;}
	.st92{fill:#0DAFC6;}
	.st93{fill:#9CD92A;}
	.st94{fill:#E45094;}
	.st95{fill:#D953D4;}
	.st96{fill:#CF56DB;}
	.st97{fill:#0BAACC;}
	.st98{fill:#5DDA4F;}
	.st99{fill:#66DA4A;}
	.st100{fill:#16C4A7;}
	.st101{fill:#8A6AE1;}
	.st102{fill:#13BEB0;}
	.st103{fill:#ED4C62;}
	.st104{fill:#3682EC;}
	.st105{fill:#6C72E5;}
	.st106{fill:#9367E0;}
	.st107{fill:#DB53CD;}
	.st108{fill:#DC52C1;}
	.st109{fill:#5579E8;}
	.st110{fill:#3E7FEB;}
	.st111{fill:#4D7BE9;}
	.st112{fill:#2F84ED;}
	.st113{fill:#15C1AC;}
	.st114{fill:#5D76E7;}
	.st115{fill:#94D92E;}
	.st116{fill:#7470E4;}
	.st117{fill:#31DA6F;}
	.st118{fill:#457DEA;}
	.st119{fill:#6474E6;}
	.st120{fill:#41DA63;}
	.st121{fill:#79D93E;}
	.st122{fill:#ABD922;}
	.st123{fill:#EE4C5C;}
	.st124{fill:#AFD91F;}
	.st125{fill:#826CE2;}
	.st126{fill:#36DA6B;}
	.st127{fill:#BE5BDD;}
	.st128{fill:#C758DC;}
	.st129{fill:#DC53C7;}
	.st130{fill:#8ED932;}
	.st131{fill:#80D93A;}
	.st132{fill:#7B6EE3;}
	.st133{fill:#0296EC;}
	.st134{fill:#A163DE;}
	.st135{fill:#87D936;}
	.st136{fill:#0399E6;}
	.st137{fill:#3BDA66;}
	.st138{fill:#B65DDD;}
	.st139{fill:#A861DE;}
	.st140{fill:#AF5FDD;}
	.st141{fill:#E21836;}
	.st142{fill:#00447C;}
	.st143{fill:#007B84;}
	.st144{fill:#FEFEFE;}
	.st145{fill-rule:evenodd;clip-rule:evenodd;fill:#3D95CE;}
	.st146{fill:#6772E5;}
	.st147{fill:#211F1F;}
	.st148{fill:#1E4BC6;}
	.st149{fill:#0099DF;}
	.st150{fill:#005EB6;}
	.st151{fill:#2271CE;}
	.st152{fill:#D32011;}
	.st153{fill:#6C6BBD;}
	.st154{fill:#F79E1B;}
	.st155{fill:#EB001B;}
	.st156{fill:#FF5F00;}
	.st157{fill-rule:evenodd;clip-rule:evenodd;fill:#2BA6DF;}
	.st158{fill-rule:evenodd;clip-rule:evenodd;fill:#3F3A39;}
	.st159{fill:#FBBC05;}
	.st160{fill:#EA4335;}
	.st161{fill:#34A853;}
	.st162{fill:#4285F4;}
</style>
<g>
	<path class="st6" d="M172.2,177.66l-43.95,104.86H99.58l-21.63-83.69c-1.31-5.15-2.45-7.04-6.44-9.21
		c-6.52-3.54-17.29-6.86-26.76-8.92l0.64-3.04h46.16c5.88,0,11.17,3.91,12.51,10.69l11.42,60.68l28.23-71.37H172.2z M284.56,248.29
		c0.12-27.67-38.27-29.2-38-41.57c0.08-3.76,3.67-7.76,11.51-8.78c3.88-0.51,14.6-0.9,26.74,4.69l4.77-22.23
		c-6.53-2.37-14.93-4.65-25.38-4.65c-26.81,0-45.69,14.26-45.84,34.66c-0.18,15.1,13.47,23.52,23.75,28.54
		c10.56,5.14,14.11,8.44,14.07,13.03c-0.08,7.04-8.43,10.14-16.24,10.26c-13.64,0.21-21.55-3.69-27.86-6.63l-4.91,22.98
		c6.33,2.91,18.03,5.45,30.17,5.57C265.83,284.17,284.47,270.09,284.56,248.29 M355.37,282.53h25.09l-21.9-104.86H335.4
		c-5.21,0-9.6,3.03-11.55,7.69l-40.7,97.17h28.48l5.66-15.67h34.8L355.37,282.53z M325.1,245.37L339.38,206l8.22,39.37H325.1z
		 M210.97,177.66l-22.43,104.86H161.4l22.44-104.86H210.97z"/>
</g>
</svg>
